{
	"asset":{
		"generator":"Khronos glTF Blender I/O v4.1.62",
		"version":"2.0"
	},
	"scene":0,
	"scenes":[
		{
			"name":"Scene",
			"nodes":[
				0,
				1,
				2,
				3
			]
		}
	],
	"nodes":[
		{
			"mesh":0,
			"name":"Cube",
			"scale":[
				1,
				1,
				3.60853910446167
			]
		},
		{
			"mesh":1,
			"name":"\u7acb\u65b9\u4f53",
			"scale":[
				0.5695770382881165,
				0.7680345177650452,
				0.5752632021903992
			],
			"translation":[
				0,
				1.336357831954956,
				-2.3451859951019287
			]
		},
		{
			"mesh":2,
			"name":"\u5186\u67f1",
			"scale":[
				-0.010983681306242943,
				-1.6605572700500488,
				-0.010983681306242943
			],
			"translation":[
				1.9464740753173828,
				1.3227311372756958,
				-0.21393364667892456
			]
		},
		{
			"mesh":3,
			"name":"\u5186\u67f1.001",
			"scale":[
				-0.010983681306242943,
				-1.6605572700500488,
				-0.010983681306242943
			],
			"translation":[
				3.931375026702881,
				0.37209630012512207,
				-0.5415101051330566
			]
		}
	],
	"materials":[
		{
			"doubleSided":true,
			"name":"Material",
			"pbrMetallicRoughness":{
				"baseColorFactor":[
					0.800000011920929,
					0.800000011920929,
					0.800000011920929,
					1
				],
				"metallicFactor":0,
				"roughnessFactor":0.5
			}
		}
	],
	"meshes":[
		{
			"name":"Cube",
			"primitives":[
				{
					"attributes":{
						"POSITION":0,
						"NORMAL":1,
						"TEXCOORD_0":2
					},
					"indices":3,
					"material":0
				}
			]
		},
		{
			"name":"\u7acb\u65b9\u4f53",
			"primitives":[
				{
					"attributes":{
						"POSITION":4,
						"NORMAL":5,
						"TEXCOORD_0":6
					},
					"indices":7
				}
			]
		},
		{
			"name":"\u5186\u67f1",
			"primitives":[
				{
					"attributes":{
						"POSITION":8,
						"NORMAL":9,
						"TEXCOORD_0":10
					},
					"indices":11
				}
			]
		},
		{
			"name":"\u5186\u67f1.001",
			"primitives":[
				{
					"attributes":{
						"POSITION":12,
						"NORMAL":13,
						"TEXCOORD_0":14
					},
					"indices":11
				}
			]
		}
	],
	"accessors":[
		{
			"bufferView":0,
			"componentType":5126,
			"count":74,
			"max":[
				1,
				1,
				1
			],
			"min":[
				-1,
				-1,
				-1.2911105155944824
			],
			"type":"VEC3"
		},
		{
			"bufferView":1,
			"componentType":5126,
			"count":74,
			"type":"VEC3"
		},
		{
			"bufferView":2,
			"componentType":5126,
			"count":74,
			"type":"VEC2"
		},
		{
			"bufferView":3,
			"componentType":5123,
			"count":228,
			"type":"SCALAR"
		},
		{
			"bufferView":4,
			"componentType":5126,
			"count":282,
			"max":[
				1.2799180746078491,
				1,
				9.947484016418457
			],
			"min":[
				-1,
				-1.4463801383972168,
				-1
			],
			"type":"VEC3"
		},
		{
			"bufferView":5,
			"componentType":5126,
			"count":282,
			"type":"VEC3"
		},
		{
			"bufferView":6,
			"componentType":5126,
			"count":282,
			"type":"VEC2"
		},
		{
			"bufferView":7,
			"componentType":5123,
			"count":516,
			"type":"SCALAR"
		},
		{
			"bufferView":8,
			"componentType":5126,
			"count":192,
			"max":[
				117.28036499023438,
				0.46029508113861084,
				23.009824752807617
			],
			"min":[
				-154.00941467285156,
				-0.39798247814178467,
				-23.00987434387207
			],
			"type":"VEC3"
		},
		{
			"bufferView":9,
			"componentType":5126,
			"count":192,
			"type":"VEC3"
		},
		{
			"bufferView":10,
			"componentType":5126,
			"count":192,
			"type":"VEC2"
		},
		{
			"bufferView":11,
			"componentType":5123,
			"count":372,
			"type":"SCALAR"
		},
		{
			"bufferView":12,
			"componentType":5126,
			"count":192,
			"max":[
				117.28036499023438,
				0.46029508113861084,
				23.009824752807617
			],
			"min":[
				-154.00941467285156,
				-0.39798247814178467,
				-23.00987434387207
			],
			"type":"VEC3"
		},
		{
			"bufferView":13,
			"componentType":5126,
			"count":192,
			"type":"VEC3"
		},
		{
			"bufferView":14,
			"componentType":5126,
			"count":192,
			"type":"VEC2"
		}
	],
	"bufferViews":[
		{
			"buffer":0,
			"byteLength":888,
			"byteOffset":0,
			"target":34962
		},
		{
			"buffer":0,
			"byteLength":888,
			"byteOffset":888,
			"target":34962
		},
		{
			"buffer":0,
			"byteLength":592,
			"byteOffset":1776,
			"target":34962
		},
		{
			"buffer":0,
			"byteLength":456,
			"byteOffset":2368,
			"target":34963
		},
		{
			"buffer":0,
			"byteLength":3384,
			"byteOffset":2824,
			"target":34962
		},
		{
			"buffer":0,
			"byteLength":3384,
			"byteOffset":6208,
			"target":34962
		},
		{
			"buffer":0,
			"byteLength":2256,
			"byteOffset":9592,
			"target":34962
		},
		{
			"buffer":0,
			"byteLength":1032,
			"byteOffset":11848,
			"target":34963
		},
		{
			"buffer":0,
			"byteLength":2304,
			"byteOffset":12880,
			"target":34962
		},
		{
			"buffer":0,
			"byteLength":2304,
			"byteOffset":15184,
			"target":34962
		},
		{
			"buffer":0,
			"byteLength":1536,
			"byteOffset":17488,
			"target":34962
		},
		{
			"buffer":0,
			"byteLength":744,
			"byteOffset":19024,
			"target":34963
		},
		{
			"buffer":0,
			"byteLength":2304,
			"byteOffset":19768,
			"target":34962
		},
		{
			"buffer":0,
			"byteLength":2304,
			"byteOffset":22072,
			"target":34962
		},
		{
			"buffer":0,
			"byteLength":1536,
			"byteOffset":24376,
			"target":34962
		}
	],
	"buffers":[
		{
			"byteLength":25912,
			"uri":"ship.bin"
		}
	]
}
