{
	"asset":{
		"generator":"Khronos glTF Blender I/O v4.1.62",
		"version":"2.0"
	},
	"scene":0,
	"scenes":[
		{
			"name":"Scene",
			"nodes":[
				0,
				1,
				2
			]
		}
	],
	"nodes":[
		{
			"mesh":0,
			"name":"Cannon_Model"
		},
		{
			"mesh":1,
			"name":"COL01",
			"scale":[
				1.0327728986740112,
				1.0327728986740112,
				1.0327728986740112
			],
			"translation":[
				0,
				0.24589961767196655,
				0
			]
		},
		{
			"mesh":2,
			"name":"COL02",
			"rotation":[
				0.08380695432424545,
				0,
				0,
				0.9964820146560669
			],
			"scale":[
				0.29336076974868774,
				0.317253440618515,
				1.6025402545928955
			],
			"translation":[
				0,
				1.5867319107055664,
				-0.6219496130943298
			]
		}
	],
	"materials":[
		{
			"name":"Material",
			"pbrMetallicRoughness":{
				"baseColorTexture":{
					"index":0
				},
				"metallicFactor":0,
				"roughnessFactor":0.4000000059604645
			}
		}
	],
	"meshes":[
		{
			"name":"Cylinder.006",
			"primitives":[
				{
					"attributes":{
						"POSITION":0,
						"NORMAL":1,
						"TEXCOORD_0":2
					},
					"indices":3,
					"material":0
				}
			]
		},
		{
			"name":"\u7acb\u65b9\u4f53",
			"primitives":[
				{
					"attributes":{
						"POSITION":4,
						"NORMAL":5,
						"TEXCOORD_0":6
					},
					"indices":7
				}
			]
		},
		{
			"name":"\u7acb\u65b9\u4f53.001",
			"primitives":[
				{
					"attributes":{
						"POSITION":8,
						"NORMAL":9,
						"TEXCOORD_0":10
					},
					"indices":7
				}
			]
		}
	],
	"textures":[
		{
			"sampler":0,
			"source":0
		}
	],
	"images":[
		{
			"mimeType":"image/png",
			"name":"Cannon_Basecolor",
			"uri":"Cannon_Basecolor.png"
		}
	],
	"accessors":[
		{
			"bufferView":0,
			"componentType":5126,
			"count":2652,
			"max":[
				1.0254355669021606,
				2.1412460803985596,
				1.0204867124557495
			],
			"min":[
				-1.0254358053207397,
				0.0012131251860409975,
				-2.2134599685668945
			],
			"type":"VEC3"
		},
		{
			"bufferView":1,
			"componentType":5126,
			"count":2652,
			"type":"VEC3"
		},
		{
			"bufferView":2,
			"componentType":5126,
			"count":2652,
			"type":"VEC2"
		},
		{
			"bufferView":3,
			"componentType":5123,
			"count":9792,
			"type":"SCALAR"
		},
		{
			"bufferView":4,
			"componentType":5126,
			"count":24,
			"max":[
				1,
				1,
				1
			],
			"min":[
				-1,
				-1,
				-1
			],
			"type":"VEC3"
		},
		{
			"bufferView":5,
			"componentType":5126,
			"count":24,
			"type":"VEC3"
		},
		{
			"bufferView":6,
			"componentType":5126,
			"count":24,
			"type":"VEC2"
		},
		{
			"bufferView":7,
			"componentType":5123,
			"count":36,
			"type":"SCALAR"
		},
		{
			"bufferView":8,
			"componentType":5126,
			"count":24,
			"max":[
				1,
				1,
				1
			],
			"min":[
				-1,
				-1,
				-1
			],
			"type":"VEC3"
		},
		{
			"bufferView":9,
			"componentType":5126,
			"count":24,
			"type":"VEC3"
		},
		{
			"bufferView":10,
			"componentType":5126,
			"count":24,
			"type":"VEC2"
		}
	],
	"bufferViews":[
		{
			"buffer":0,
			"byteLength":31824,
			"byteOffset":0,
			"target":34962
		},
		{
			"buffer":0,
			"byteLength":31824,
			"byteOffset":31824,
			"target":34962
		},
		{
			"buffer":0,
			"byteLength":21216,
			"byteOffset":63648,
			"target":34962
		},
		{
			"buffer":0,
			"byteLength":19584,
			"byteOffset":84864,
			"target":34963
		},
		{
			"buffer":0,
			"byteLength":288,
			"byteOffset":104448,
			"target":34962
		},
		{
			"buffer":0,
			"byteLength":288,
			"byteOffset":104736,
			"target":34962
		},
		{
			"buffer":0,
			"byteLength":192,
			"byteOffset":105024,
			"target":34962
		},
		{
			"buffer":0,
			"byteLength":72,
			"byteOffset":105216,
			"target":34963
		},
		{
			"buffer":0,
			"byteLength":288,
			"byteOffset":105288,
			"target":34962
		},
		{
			"buffer":0,
			"byteLength":288,
			"byteOffset":105576,
			"target":34962
		},
		{
			"buffer":0,
			"byteLength":192,
			"byteOffset":105864,
			"target":34962
		}
	],
	"samplers":[
		{
			"magFilter":9729,
			"minFilter":9987
		}
	],
	"buffers":[
		{
			"byteLength":106056,
			"uri":"Cannon.bin"
		}
	]
}
