{
	"asset":{
		"generator":"Khronos glTF Blender I/O v4.1.62",
		"version":"2.0"
	},
	"scene":0,
	"scenes":[
		{
			"name":"Scene",
			"nodes":[
				0
			]
		}
	],
	"nodes":[
		{
			"mesh":0,
			"name":"Ship",
			"rotation":[
				0,
				0.7518731355667114,
				0,
				0.6593077778816223
			],
			"translation":[
				3.6284337043762207,
				3.910191774368286,
				-4.543887138366699
			]
		}
	],
	"meshes":[
		{
			"name":"Cube.009",
			"primitives":[
				{
					"attributes":{
						"POSITION":0,
						"NORMAL":1,
						"TEXCOORD_0":2
					},
					"indices":3
				}
			]
		}
	],
	"accessors":[
		{
			"bufferView":0,
			"componentType":5126,
			"count":7650,
			"max":[
				25.749303817749023,
				36.2114143371582,
				8.6945161819458
			],
			"min":[
				-26.025196075439453,
				-3.848271369934082,
				-15.209845542907715
			],
			"type":"VEC3"
		},
		{
			"bufferView":1,
			"componentType":5126,
			"count":7650,
			"type":"VEC3"
		},
		{
			"bufferView":2,
			"componentType":5126,
			"count":7650,
			"type":"VEC2"
		},
		{
			"bufferView":3,
			"componentType":5123,
			"count":21060,
			"type":"SCALAR"
		}
	],
	"bufferViews":[
		{
			"buffer":0,
			"byteLength":91800,
			"byteOffset":0,
			"target":34962
		},
		{
			"buffer":0,
			"byteLength":91800,
			"byteOffset":91800,
			"target":34962
		},
		{
			"buffer":0,
			"byteLength":61200,
			"byteOffset":183600,
			"target":34962
		},
		{
			"buffer":0,
			"byteLength":42120,
			"byteOffset":244800,
			"target":34963
		}
	],
	"buffers":[
		{
			"byteLength":286920,
			"uri":"GalleonOGA.bin"
		}
	]
}
